STARTFONT 2.3
FONT -FontForge-Monoton-Book-R-Normal--12-120-72-72-P-80-ISO10646-1
SIZE 12 72 72  2
FONTBOUNDINGBOX 23 19 -2 -5
COMMENT "Generated by fontforge, http://fontforge.sourceforge.net"
COMMENT "Copyright (c) 2011 by vernon adams. All rights reserved."
STARTPROPERTIES 41
FOUNDRY "FontForge"
FAMILY_NAME "Monoton"
WEIGHT_NAME "Book"
SLANT "R"
SETWIDTH_NAME "Normal"
ADD_STYLE_NAME ""
PIXEL_SIZE 12
POINT_SIZE 120
RESOLUTION_X 72
RESOLUTION_Y 72
SPACING "P"
AVERAGE_WIDTH 80
CHARSET_REGISTRY "ISO10646"
CHARSET_ENCODING "1"
FONTNAME_REGISTRY ""
CHARSET_COLLECTIONS "ISO8859-2 ISO8859-9 ISO8859-4 ISO10646-1"
BITS_PER_PIXEL 2
FONT_NAME "Monoton-Regular"
FACE_NAME "Monoton"
COPYRIGHT "Copyright (c) 2011 by vernon adams. All rights reserved."
FONT_VERSION "1.000"
FONT_ASCENT 10
FONT_DESCENT 2
UNDERLINE_POSITION -1
UNDERLINE_THICKNESS 1
X_HEIGHT 8
CAP_HEIGHT 9
DEFAULT_CHAR 1
RAW_ASCENT 799
RAW_DESCENT 200
NORM_SPACE 1
RELATIVE_WEIGHT 40
RELATIVE_SETWIDTH 50
SUPERSCRIPT_X 0
SUPERSCRIPT_Y 4
SUPERSCRIPT_SIZE 7
SUBSCRIPT_X 0
SUBSCRIPT_Y 0
SUBSCRIPT_SIZE 7
AVG_LOWERCASE_WIDTH 87
AVG_UPPERCASE_WIDTH 94
ENDPROPERTIES
CHARS 372
STARTCHAR glyph1.dup1
ENCODING 0
SWIDTH 108 0
DWIDTH 1 0
BBX 1 1 0 0
BITMAP
00
ENDCHAR
STARTCHAR uni0002
ENCODING 2
SWIDTH 108 0
DWIDTH 1 0
BBX 1 1 0 0
BITMAP
00
ENDCHAR
STARTCHAR uni0009
ENCODING 9
SWIDTH 108 0
DWIDTH 1 0
BBX 1 1 0 0
BITMAP
00
ENDCHAR
STARTCHAR uni000A
ENCODING 10
SWIDTH 108 0
DWIDTH 1 0
BBX 1 1 0 0
BITMAP
00
ENDCHAR
STARTCHAR uni000D
ENCODING 13
SWIDTH 108 0
DWIDTH 1 0
BBX 1 1 0 0
BITMAP
00
ENDCHAR
STARTCHAR space
ENCODING 32
SWIDTH 108 0
DWIDTH 1 0
BBX 1 1 0 0
BITMAP
00
ENDCHAR
STARTCHAR exclam
ENCODING 33
SWIDTH 336 0
DWIDTH 4 0
BBX 4 11 0 -1
BITMAP
55
55
55
55
55
55
55
55
55
55
55
ENDCHAR
STARTCHAR quotedbl
ENCODING 34
SWIDTH 538 0
DWIDTH 6 0
BBX 6 4 0 6
BITMAP
5450
54A0
54A0
54A0
ENDCHAR
STARTCHAR numbersign
ENCODING 35
SWIDTH 1014 0
DWIDTH 12 0
BBX 12 11 0 -1
BITMAP
006454
05A565
0A5AA5
156655
019150
068190
054680
69A964
56A5A0
1A0640
150500
ENDCHAR
STARTCHAR dollar
ENCODING 36
SWIDTH 686 0
DWIDTH 8 0
BBX 8 13 0 -2
BITMAP
0140
16A5
2AA9
5564
5650
55A4
2555
0565
0565
1555
5964
0550
0140
ENDCHAR
STARTCHAR percent
ENCODING 37
SWIDTH 1504 0
DWIDTH 18 0
BBX 18 11 0 -1
BITMAP
1690150000
2A94280000
5559640000
5959545500
5699655580
1694A1A950
0691565650
0001569A50
0001919550
0002806640
0005401400
ENDCHAR
STARTCHAR ampersand
ENCODING 38
SWIDTH 1029 0
DWIDTH 12 0
BBX 12 10 0 0
BITMAP
055554
155554
56A554
565554
555659
66AA5A
565655
56A995
2AA8A9
06A819
ENDCHAR
STARTCHAR quotesingle
ENCODING 39
SWIDTH 257 0
DWIDTH 3 0
BBX 3 4 0 6
BITMAP
54
54
54
54
ENDCHAR
STARTCHAR parenleft
ENCODING 40
SWIDTH 410 0
DWIDTH 5 0
BBX 5 11 0 -1
BITMAP
0640
2A40
5540
5500
5500
5500
5500
5600
6640
1A40
0540
ENDCHAR
STARTCHAR parenright
ENCODING 41
SWIDTH 408 0
DWIDTH 5 0
BBX 5 11 0 -1
BITMAP
6400
6A00
5640
1540
1540
1540
1540
1540
6640
5900
5400
ENDCHAR
STARTCHAR asterisk
ENCODING 42
SWIDTH 664 0
DWIDTH 8 0
BBX 8 8 0 1
BITMAP
0140
1284
1AA4
5AA5
1694
5965
1694
0140
ENDCHAR
STARTCHAR plus
ENCODING 43
SWIDTH 601 0
DWIDTH 7 0
BBX 7 6 0 2
BITMAP
0540
0680
5AA4
6AA4
1690
0580
ENDCHAR
STARTCHAR comma
ENCODING 44
SWIDTH 252 0
DWIDTH 3 0
BBX 3 4 0 -2
BITMAP
54
54
54
50
ENDCHAR
STARTCHAR hyphen
ENCODING 45
SWIDTH 473 0
DWIDTH 6 0
BBX 5 3 0 3
BITMAP
5540
6A80
1540
ENDCHAR
STARTCHAR period
ENCODING 46
SWIDTH 255 0
DWIDTH 3 0
BBX 3 2 0 0
BITMAP
64
64
ENDCHAR
STARTCHAR slash
ENCODING 47
SWIDTH 447 0
DWIDTH 5 0
BBX 5 11 0 -1
BITMAP
0140
0640
0540
0640
0A00
1500
1500
1900
2800
5400
5400
ENDCHAR
STARTCHAR zero
ENCODING 48
SWIDTH 843 0
DWIDTH 10 0
BBX 10 11 0 -1
BITMAP
05A500
15A540
2A9A80
550550
550650
550650
550550
295590
155540
065900
005400
ENDCHAR
STARTCHAR one
ENCODING 49
SWIDTH 426 0
DWIDTH 5 0
BBX 5 10 0 0
BITMAP
5540
5540
6A40
1540
1540
1540
1540
1540
1540
1540
ENDCHAR
STARTCHAR two
ENCODING 50
SWIDTH 583 0
DWIDTH 7 0
BBX 7 10 0 0
BITMAP
6A50
6A94
2594
0154
02A4
0990
1A40
1540
6AA0
6AA0
ENDCHAR
STARTCHAR three
ENCODING 51
SWIDTH 612 0
DWIDTH 7 0
BBX 7 11 0 -1
BITMAP
6A50
6A94
25A4
05A4
0AA4
0594
05A4
15A4
5554
6590
1540
ENDCHAR
STARTCHAR four
ENCODING 52
SWIDTH 622 0
DWIDTH 7 0
BBX 7 10 0 0
BITMAP
0150
0550
0A50
1940
2554
6914
5554
6AA8
5568
0014
ENDCHAR
STARTCHAR five
ENCODING 53
SWIDTH 691 0
DWIDTH 8 0
BBX 8 11 0 -1
BITMAP
1554
1554
6954
6550
6564
6555
556A
0569
1569
59A4
0540
ENDCHAR
STARTCHAR six
ENCODING 54
SWIDTH 781 0
DWIDTH 9 0
BBX 9 11 0 -1
BITMAP
06A500
16A900
5A5400
565400
565A00
565540
565A80
555A80
1A5A40
166900
015000
ENDCHAR
STARTCHAR seven
ENCODING 55
SWIDTH 631 0
DWIDTH 8 0
BBX 7 10 0 0
BITMAP
5554
55A8
5594
0154
0164
02A0
0650
0550
0590
0A80
ENDCHAR
STARTCHAR eight
ENCODING 56
SWIDTH 808 0
DWIDTH 10 0
BBX 10 11 0 -1
BITMAP
1AA900
2AAA40
555590
565590
55AA80
655680
5A5590
555590
595680
1A5A40
015400
ENDCHAR
STARTCHAR nine
ENCODING 57
SWIDTH 782 0
DWIDTH 9 0
BBX 9 11 0 -1
BITMAP
06A500
2AA640
556A40
551A80
569A80
295A80
055A80
015A40
095940
1A6500
015000
ENDCHAR
STARTCHAR colon
ENCODING 58
SWIDTH 262 0
DWIDTH 3 0
BBX 3 7 0 1
BITMAP
10
64
64
00
54
64
14
ENDCHAR
STARTCHAR semicolon
ENCODING 59
SWIDTH 261 0
DWIDTH 3 0
BBX 3 8 0 0
BITMAP
10
64
64
00
54
54
14
54
ENDCHAR
STARTCHAR less
ENCODING 60
SWIDTH 670 0
DWIDTH 8 0
BBX 8 9 0 0
BITMAP
0015
0595
5999
6994
6650
6659
0599
0059
0001
ENDCHAR
STARTCHAR equal
ENCODING 61
SWIDTH 473 0
DWIDTH 6 0
BBX 5 7 0 1
BITMAP
1540
6A80
6A80
0000
5540
6A80
1540
ENDCHAR
STARTCHAR greater
ENCODING 62
SWIDTH 670 0
DWIDTH 8 0
BBX 8 9 0 0
BITMAP
5400
5650
6665
1559
0599
6999
6694
6500
5000
ENDCHAR
STARTCHAR question
ENCODING 63
SWIDTH 693 0
DWIDTH 8 0
BBX 8 10 0 0
BITMAP
1A94
5AA9
0569
006A
16A9
1699
1650
1500
2900
2900
ENDCHAR
STARTCHAR at
ENCODING 64
SWIDTH 1076 0
DWIDTH 13 0
BBX 13 12 0 -1
BITMAP
00550000
05959000
1A955400
19155500
54958640
55555540
55515540
55A96540
19595540
15555500
09690000
01550000
ENDCHAR
STARTCHAR A
ENCODING 65
SWIDTH 936 0
DWIDTH 11 0
BBX 11 10 0 0
BITMAP
005500
015500
016A00
065540
056A40
0A8690
155950
16AAA0
6A5554
550194
ENDCHAR
STARTCHAR B
ENCODING 66
SWIDTH 862 0
DWIDTH 10 0
BBX 10 10 0 0
BITMAP
555500
555540
5AA950
565690
565650
56AA50
555690
56AAA0
56AA90
56A940
ENDCHAR
STARTCHAR C
ENCODING 67
SWIDTH 852 0
DWIDTH 10 0
BBX 10 11 0 -1
BITMAP
01A940
16A950
1A9A50
554100
550000
550000
550100
2A5540
165650
069A40
005400
ENDCHAR
STARTCHAR D
ENCODING 68
SWIDTH 886 0
DWIDTH 11 0
BBX 11 10 0 0
BITMAP
555500
555680
5AA550
5656A0
5501A4
5501A4
5506A0
56AA90
5AAA80
6AA900
ENDCHAR
STARTCHAR E
ENCODING 69
SWIDTH 706 0
DWIDTH 8 0
BBX 8 10 0 0
BITMAP
5655
5655
5655
5500
5650
5690
5640
5500
56AA
56AA
ENDCHAR
STARTCHAR F
ENCODING 70
SWIDTH 683 0
DWIDTH 8 0
BBX 8 10 0 0
BITMAP
5655
5655
5655
5500
5655
5655
5655
5500
5500
5500
ENDCHAR
STARTCHAR G
ENCODING 71
SWIDTH 908 0
DWIDTH 11 0
BBX 11 11 0 -1
BITMAP
01A940
16A950
1A9A50
554100
550000
590154
550154
165654
155654
059A54
005400
ENDCHAR
STARTCHAR H
ENCODING 72
SWIDTH 901 0
DWIDTH 11 0
BBX 11 10 0 0
BITMAP
550154
550164
550164
550164
565664
56AA64
565564
550164
550164
550164
ENDCHAR
STARTCHAR I
ENCODING 73
SWIDTH 338 0
DWIDTH 4 0
BBX 4 10 0 0
BITMAP
55
55
55
55
55
55
55
55
55
55
ENDCHAR
STARTCHAR J
ENCODING 74
SWIDTH 434 0
DWIDTH 5 0
BBX 5 11 0 -1
BITMAP
1540
1940
1940
1940
1940
1940
1940
6540
5A00
6900
5000
ENDCHAR
STARTCHAR K
ENCODING 75
SWIDTH 815 0
DWIDTH 10 0
BBX 10 10 0 0
BITMAP
550550
551940
551540
556500
555900
56A900
555500
552A40
551540
550A90
ENDCHAR
STARTCHAR L
ENCODING 76
SWIDTH 604 0
DWIDTH 7 0
BBX 7 10 0 0
BITMAP
5500
5500
5500
5500
5500
5500
5500
5500
56A8
56A8
ENDCHAR
STARTCHAR M
ENCODING 77
SWIDTH 920 0
DWIDTH 11 0
BBX 11 10 0 0
BITMAP
540054
550154
5A0294
554554
569A54
556654
56A654
555554
550154
550154
ENDCHAR
STARTCHAR N
ENCODING 78
SWIDTH 877 0
DWIDTH 11 0
BBX 10 10 0 0
BITMAP
550150
5A42A0
5A92A0
56A2A0
55A6A0
56A9A0
556A60
551AA0
5516A0
5506A0
ENDCHAR
STARTCHAR O
ENCODING 79
SWIDTH 933 0
DWIDTH 11 0
BBX 11 11 0 -1
BITMAP
01A940
16AA50
1A9AA0
554154
5501A4
5500A4
550154
2A55A4
165650
069A40
005400
ENDCHAR
STARTCHAR P
ENCODING 80
SWIDTH 850 0
DWIDTH 10 0
BBX 10 10 0 0
BITMAP
555500
555580
5AA950
565690
555A50
555690
555680
555500
550000
550000
ENDCHAR
STARTCHAR Q
ENCODING 81
SWIDTH 937 0
DWIDTH 11 0
BBX 11 11 0 -1
BITMAP
01A940
16AA50
1A9AA0
554154
5501A4
5501A4
551654
2A55A4
165650
069A90
005590
ENDCHAR
STARTCHAR R
ENCODING 82
SWIDTH 843 0
DWIDTH 10 0
BBX 10 10 0 0
BITMAP
555500
555580
5AA950
565650
565650
565650
56AA40
556A40
551940
550A80
ENDCHAR
STARTCHAR S
ENCODING 83
SWIDTH 682 0
DWIDTH 8 0
BBX 8 11 0 -1
BITMAP
16A5
2AA9
5554
5650
55A4
2555
0565
0565
1555
5964
0540
ENDCHAR
STARTCHAR T
ENCODING 84
SWIDTH 591 0
DWIDTH 7 0
BBX 7 10 0 0
BITMAP
5554
5554
5A94
0A80
0A80
0A80
0A80
0A80
0A80
0A80
ENDCHAR
STARTCHAR U
ENCODING 85
SWIDTH 905 0
DWIDTH 11 0
BBX 11 11 0 -1
BITMAP
550154
550164
550164
550164
550164
550164
550164
265660
155590
069A40
005400
ENDCHAR
STARTCHAR V
ENCODING 86
SWIDTH 940 0
DWIDTH 11 0
BBX 11 10 0 0
BITMAP
550154
690154
1A42A4
154650
0A8590
055A80
065540
015A40
016500
009500
ENDCHAR
STARTCHAR W
ENCODING 87
SWIDTH 1161 0
DWIDTH 14 0
BBX 14 10 0 0
BITMAP
55154550
551A8590
696A8A80
1A96AA40
155A6540
15AA9640
0996AA00
0655A500
05659500
06A09900
ENDCHAR
STARTCHAR X
ENCODING 88
SWIDTH 876 0
DWIDTH 11 0
BBX 10 10 0 0
BITMAP
550550
255550
195540
09AA00
055500
01A900
06A640
056640
1A8690
6A4650
ENDCHAR
STARTCHAR Y
ENCODING 89
SWIDTH 789 0
DWIDTH 9 0
BBX 9 10 0 0
BITMAP
550540
651940
165640
196500
069900
05A400
026400
016400
016400
016400
ENDCHAR
STARTCHAR Z
ENCODING 90
SWIDTH 854 0
DWIDTH 10 0
BBX 10 10 0 0
BITMAP
555550
555590
6A9690
155A90
01AA40
16A900
5A9000
6A5A90
69AA90
6AAA90
ENDCHAR
STARTCHAR bracketleft
ENCODING 91
SWIDTH 320 0
DWIDTH 4 0
BBX 4 11 0 -1
BITMAP
59
55
54
54
54
54
54
54
58
69
55
ENDCHAR
STARTCHAR backslash
ENCODING 92
SWIDTH 448 0
DWIDTH 5 0
BBX 5 11 0 -1
BITMAP
5400
5400
6800
2900
1500
1500
1A00
0A40
0540
0540
0680
ENDCHAR
STARTCHAR bracketright
ENCODING 93
SWIDTH 319 0
DWIDTH 4 0
BBX 4 11 0 -1
BITMAP
69
59
19
19
19
19
19
19
59
69
55
ENDCHAR
STARTCHAR asciicircum
ENCODING 94
SWIDTH 475 0
DWIDTH 6 0
BBX 5 5 0 4
BITMAP
0500
1900
1640
2540
6180
ENDCHAR
STARTCHAR underscore
ENCODING 95
SWIDTH 511 0
DWIDTH 6 0
BBX 6 2 0 -2
BITMAP
6A90
6A90
ENDCHAR
STARTCHAR grave
ENCODING 96
SWIDTH 472 0
DWIDTH 6 0
BBX 5 4 0 8
BITMAP
1000
6500
0640
0040
ENDCHAR
STARTCHAR a
ENCODING 97
SWIDTH 832 0
DWIDTH 10 0
BBX 10 10 0 -1
BITMAP
015400
155600
19AA80
555590
590550
550550
695950
1A5950
06A950
004000
ENDCHAR
STARTCHAR b
ENCODING 98
SWIDTH 720 0
DWIDTH 9 0
BBX 9 9 0 0
BITMAP
555400
555100
555800
555440
556900
555900
541840
56A900
555500
ENDCHAR
STARTCHAR c
ENCODING 99
SWIDTH 736 0
DWIDTH 9 0
BBX 9 10 0 -1
BITMAP
015400
19A640
1AA500
555400
590000
550000
595400
165A40
065900
005000
ENDCHAR
STARTCHAR d
ENCODING 100
SWIDTH 833 0
DWIDTH 10 0
BBX 10 9 0 0
BITMAP
555400
555A00
555680
565590
550550
550550
56A950
5AA940
6AA500
ENDCHAR
STARTCHAR e
ENCODING 101
SWIDTH 666 0
DWIDTH 8 0
BBX 8 9 0 0
BITMAP
5555
5655
5655
5654
56A8
5654
5500
56A9
56A9
ENDCHAR
STARTCHAR f
ENCODING 102
SWIDTH 625 0
DWIDTH 8 0
BBX 7 9 0 0
BITMAP
5554
5654
5654
5500
56A4
56A4
5500
5500
5500
ENDCHAR
STARTCHAR g
ENCODING 103
SWIDTH 827 0
DWIDTH 10 0
BBX 10 10 0 -1
BITMAP
015400
19A640
1AA500
555400
590000
550550
595950
165950
065950
005000
ENDCHAR
STARTCHAR h
ENCODING 104
SWIDTH 830 0
DWIDTH 10 0
BBX 10 9 0 0
BITMAP
550550
550550
550550
565950
565950
565950
550550
550550
550550
ENDCHAR
STARTCHAR i
ENCODING 105
SWIDTH 337 0
DWIDTH 4 0
BBX 4 9 0 0
BITMAP
55
55
55
55
55
55
55
55
55
ENDCHAR
STARTCHAR j
ENCODING 106
SWIDTH 393 0
DWIDTH 5 0
BBX 5 10 0 -1
BITMAP
1500
1640
1640
1640
1640
1640
1A40
6A00
6500
6400
ENDCHAR
STARTCHAR k
ENCODING 107
SWIDTH 801 0
DWIDTH 10 0
BBX 9 9 0 0
BITMAP
550540
551540
551640
555500
55A900
555900
556600
551540
551A80
ENDCHAR
STARTCHAR l
ENCODING 108
SWIDTH 583 0
DWIDTH 7 0
BBX 7 9 0 0
BITMAP
5500
5500
5500
5500
5500
5500
5500
56A4
56A4
ENDCHAR
STARTCHAR m
ENCODING 109
SWIDTH 1167 0
DWIDTH 14 0
BBX 14 9 0 0
BITMAP
05555500
159A6540
56A6A950
56158550
55154550
55154550
55154550
55154550
55154550
ENDCHAR
STARTCHAR n
ENCODING 110
SWIDTH 787 0
DWIDTH 9 0
BBX 9 9 0 0
BITMAP
550140
6A4640
5A8640
569640
56A640
55A940
546A40
546A80
541A80
ENDCHAR
STARTCHAR o
ENCODING 111
SWIDTH 833 0
DWIDTH 10 0
BBX 10 10 0 -1
BITMAP
015400
19A640
1AAA40
555550
590550
550550
595690
165940
065900
005000
ENDCHAR
STARTCHAR p
ENCODING 112
SWIDTH 781 0
DWIDTH 9 0
BBX 9 9 0 0
BITMAP
555400
555900
555540
565640
555A40
56A940
56A900
550000
550000
ENDCHAR
STARTCHAR q
ENCODING 113
SWIDTH 788 0
DWIDTH 9 0
BBX 9 10 0 -1
BITMAP
015540
155540
195640
565A40
590A40
555A40
2A5A40
1A9A40
005A40
000A40
ENDCHAR
STARTCHAR r
ENCODING 114
SWIDTH 831 0
DWIDTH 10 0
BBX 10 9 0 0
BITMAP
555400
555640
555650
565950
565550
56AA80
56AA40
552A00
551540
ENDCHAR
STARTCHAR s
ENCODING 115
SWIDTH 683 0
DWIDTH 8 0
BBX 8 9 0 0
BITMAP
0554
2559
5554
5940
56A4
1565
0015
1AA5
1AA4
ENDCHAR
STARTCHAR t
ENCODING 116
SWIDTH 588 0
DWIDTH 7 0
BBX 7 9 0 0
BITMAP
5554
5554
5554
0A80
0A80
0A80
0A80
0A80
0A80
ENDCHAR
STARTCHAR u
ENCODING 117
SWIDTH 795 0
DWIDTH 10 0
BBX 9 10 0 -1
BITMAP
550540
550A80
550A80
550A80
550A80
550A80
655940
195540
066500
015000
ENDCHAR
STARTCHAR v
ENCODING 118
SWIDTH 855 0
DWIDTH 10 0
BBX 10 9 0 0
BITMAP
550150
550550
2A0690
155A40
1A5540
056A00
055500
015900
02A400
ENDCHAR
STARTCHAR w
ENCODING 119
SWIDTH 1129 0
DWIDTH 14 0
BBX 13 10 0 -1
BITMAP
55150540
55164680
55164680
55164680
55164680
55164680
555A9A80
2A6A9940
16AAA900
00401000
ENDCHAR
STARTCHAR x
ENCODING 120
SWIDTH 790 0
DWIDTH 9 0
BBX 9 9 0 0
BITMAP
551540
566A40
15A900
0A5500
06A800
065400
156900
2A9540
556A80
ENDCHAR
STARTCHAR y
ENCODING 121
SWIDTH 733 0
DWIDTH 9 0
BBX 9 9 0 0
BITMAP
541540
551A40
1A6500
155900
069400
066400
02A000
02A000
02A000
ENDCHAR
STARTCHAR z
ENCODING 122
SWIDTH 714 0
DWIDTH 9 0
BBX 8 9 0 0
BITMAP
5555
5595
5555
02A4
0554
0990
2950
556A
6AAA
ENDCHAR
STARTCHAR braceleft
ENCODING 123
SWIDTH 396 0
DWIDTH 5 0
BBX 5 13 0 -3
BITMAP
0A40
1640
1900
2900
2900
6800
5400
5800
2900
2900
1A40
1940
0540
ENDCHAR
STARTCHAR bar
ENCODING 124
SWIDTH 266 0
DWIDTH 3 0
BBX 3 11 0 -1
BITMAP
54
54
54
54
54
54
54
54
54
54
54
ENDCHAR
STARTCHAR braceright
ENCODING 125
SWIDTH 396 0
DWIDTH 5 0
BBX 5 13 0 -3
BITMAP
6400
6500
1500
1500
1500
0A40
1640
1500
1500
1500
5500
5800
5000
ENDCHAR
STARTCHAR asciitilde
ENCODING 126
SWIDTH 665 0
DWIDTH 8 0
BBX 8 3 0 6
BITMAP
1555
56A5
0150
ENDCHAR
STARTCHAR uni00A0
ENCODING 160
SWIDTH 108 0
DWIDTH 1 0
BBX 1 1 0 0
BITMAP
00
ENDCHAR
STARTCHAR exclamdown
ENCODING 161
SWIDTH 336 0
DWIDTH 4 0
BBX 4 11 0 -1
BITMAP
55
55
55
55
55
55
55
55
55
55
55
ENDCHAR
STARTCHAR cent
ENCODING 162
SWIDTH 708 0
DWIDTH 9 0
BBX 8 12 0 -1
BITMAP
0050
0000
06A5
2665
6554
5500
5500
6554
2A69
06A9
0040
0150
ENDCHAR
STARTCHAR sterling
ENCODING 163
SWIDTH 689 0
DWIDTH 8 0
BBX 8 10 0 0
BITMAP
16A5
2AA5
5564
5500
5654
5654
5654
5500
56A4
56A4
ENDCHAR
STARTCHAR currency
ENCODING 164
SWIDTH 715 0
DWIDTH 9 0
BBX 8 9 0 0
BITMAP
1405
5566
1959
1409
1405
1409
1959
5966
1409
ENDCHAR
STARTCHAR yen
ENCODING 165
SWIDTH 796 0
DWIDTH 10 0
BBX 9 10 0 0
BITMAP
550540
691940
165640
1A6900
059900
05A400
025400
196A00
156500
016400
ENDCHAR
STARTCHAR brokenbar
ENCODING 166
SWIDTH 263 0
DWIDTH 3 0
BBX 3 11 0 -1
BITMAP
54
54
54
54
54
00
00
54
54
54
54
ENDCHAR
STARTCHAR section
ENCODING 167
SWIDTH 108 0
DWIDTH 1 0
BBX 1 1 0 0
BITMAP
00
ENDCHAR
STARTCHAR dieresis
ENCODING 168
SWIDTH 556 0
DWIDTH 7 0
BBX 7 1 0 9
BITMAP
54A4
ENDCHAR
STARTCHAR copyright
ENCODING 169
SWIDTH 869 0
DWIDTH 10 0
BBX 10 10 0 0
BITMAP
06AA00
185580
224560
580020
880020
880020
560120
21A890
090640
01A400
ENDCHAR
STARTCHAR ordfeminine
ENCODING 170
SWIDTH 833 0
DWIDTH 10 0
BBX 10 10 0 -1
BITMAP
015400
155640
196A80
555590
550550
550550
6A5950
165950
06A950
004000
ENDCHAR
STARTCHAR guillemotleft
ENCODING 171
SWIDTH 911 0
DWIDTH 11 0
BBX 11 6 0 1
BITMAP
058154
598664
660690
664964
058164
004014
ENDCHAR
STARTCHAR logicalnot
ENCODING 172
SWIDTH 718 0
DWIDTH 9 0
BBX 8 5 0 2
BITMAP
1555
6AAA
555A
000A
0005
ENDCHAR
STARTCHAR registered
ENCODING 174
SWIDTH 869 0
DWIDTH 10 0
BBX 10 10 0 0
BITMAP
06AA00
180180
22A860
520520
825920
825420
520820
210490
090640
01A400
ENDCHAR
STARTCHAR degree
ENCODING 176
SWIDTH 330 0
DWIDTH 4 0
BBX 4 4 0 9
BITMAP
14
55
55
14
ENDCHAR
STARTCHAR plusminus
ENCODING 177
SWIDTH 598 0
DWIDTH 7 0
BBX 7 8 0 0
BITMAP
0540
0680
5AA4
6AA4
1690
0680
1554
1554
ENDCHAR
STARTCHAR uni00B2
ENCODING 178
SWIDTH 435 0
DWIDTH 5 0
BBX 5 8 0 2
BITMAP
5500
1580
0140
0600
0900
2400
6540
5540
ENDCHAR
STARTCHAR uni00B3
ENCODING 179
SWIDTH 515 0
DWIDTH 6 0
BBX 6 9 0 1
BITMAP
5500
5580
1550
0650
0590
0590
1590
6590
1500
ENDCHAR
STARTCHAR acute
ENCODING 180
SWIDTH 472 0
DWIDTH 6 0
BBX 5 3 0 8
BITMAP
0680
6900
1000
ENDCHAR
STARTCHAR uni00B5
ENCODING 181
SWIDTH 802 0
DWIDTH 10 0
BBX 9 10 0 -1
BITMAP
550540
550680
550680
550680
550680
550680
565A80
565940
566900
565000
ENDCHAR
STARTCHAR paragraph
ENCODING 182
SWIDTH 676 0
DWIDTH 8 0
BBX 8 11 0 -2
BITMAP
0155
1555
5965
5695
5595
2A95
1695
0055
0055
0065
0014
ENDCHAR
STARTCHAR periodcentered
ENCODING 183
SWIDTH 260 0
DWIDTH 3 0
BBX 3 3 0 4
BITMAP
54
54
54
ENDCHAR
STARTCHAR cedilla
ENCODING 184
SWIDTH 321 0
DWIDTH 4 0
BBX 4 5 0 -5
BITMAP
04
15
54
54
14
ENDCHAR
STARTCHAR uni00B9
ENCODING 185
SWIDTH 359 0
DWIDTH 4 0
BBX 4 7 0 3
BITMAP
55
6A
19
19
19
19
19
ENDCHAR
STARTCHAR ordmasculine
ENCODING 186
SWIDTH 835 0
DWIDTH 10 0
BBX 10 10 0 -1
BITMAP
015400
19A640
1AAA80
555550
550650
550550
595650
165980
065900
005000
ENDCHAR
STARTCHAR guillemotright
ENCODING 187
SWIDTH 912 0
DWIDTH 11 0
BBX 11 6 0 1
BITMAP
550940
664994
1646A4
658664
650940
500400
ENDCHAR
STARTCHAR onequarter
ENCODING 188
SWIDTH 1236 0
DWIDTH 15 0
BBX 15 11 0 -1
BITMAP
55054000
69054000
15054540
150A0540
15190A40
15151550
15152AA4
00281554
00641554
00540060
00540000
ENDCHAR
STARTCHAR onehalf
ENCODING 189
SWIDTH 1154 0
DWIDTH 14 0
BBX 14 11 0 -1
BITMAP
55054000
69054000
15055540
150A1550
15190090
15150180
15150600
00281900
00642940
00542A80
00540000
ENDCHAR
STARTCHAR threequarters
ENCODING 190
SWIDTH 1345 0
DWIDTH 16 0
BBX 16 11 0 -1
BITMAP
55005400
55806400
1550A054
165151A0
15915150
15919685
15528699
65954555
15054555
00064009
000A0000
ENDCHAR
STARTCHAR questiondown
ENCODING 191
SWIDTH 693 0
DWIDTH 8 0
BBX 8 10 0 0
BITMAP
1A94
5AA9
0569
006A
16A9
1699
1650
1500
2900
2900
ENDCHAR
STARTCHAR Agrave
ENCODING 192
SWIDTH 936 0
DWIDTH 11 0
BBX 11 13 0 0
BITMAP
094000
01A400
001000
005500
015500
016A00
065540
056A40
0A8690
155950
16AAA0
6A5554
550194
ENDCHAR
STARTCHAR Aacute
ENCODING 193
SWIDTH 936 0
DWIDTH 11 0
BBX 11 14 0 0
BITMAP
000040
000590
002900
001000
005500
015500
016A00
065540
056A40
0A8690
155950
16AAA0
6A5554
550194
ENDCHAR
STARTCHAR Acircumflex
ENCODING 194
SWIDTH 936 0
DWIDTH 11 0
BBX 11 14 0 0
BITMAP
006400
005400
005900
000000
005500
015500
016A00
065540
056A40
0A8690
155950
16AAA0
6A5554
550194
ENDCHAR
STARTCHAR Atilde
ENCODING 195
SWIDTH 936 0
DWIDTH 11 0
BBX 11 13 0 0
BITMAP
055540
06AA80
005500
005500
015500
016A00
065540
056A40
0A8690
155950
16AAA0
6A5554
550194
ENDCHAR
STARTCHAR Adieresis
ENCODING 196
SWIDTH 936 0
DWIDTH 11 0
BBX 11 12 0 0
BITMAP
064540
000000
005500
015500
016A00
065540
056A40
0A8690
155950
16AAA0
6A5554
550194
ENDCHAR
STARTCHAR Aring
ENCODING 197
SWIDTH 936 0
DWIDTH 11 0
BBX 11 14 0 0
BITMAP
001000
009800
009800
005400
005500
015500
016A00
065540
056A40
0A8690
155950
16AAA0
6A5554
550194
ENDCHAR
STARTCHAR AE
ENCODING 198
SWIDTH 1198 0
DWIDTH 14 0
BBX 14 10 0 0
BITMAP
00565550
01565550
016A9550
06554000
05699540
0A86AA80
19596540
16AAA000
6A556AA0
55019AA0
ENDCHAR
STARTCHAR Ccedilla
ENCODING 199
SWIDTH 852 0
DWIDTH 10 0
BBX 10 15 0 -5
BITMAP
01A940
16A950
1A9A50
554100
550000
550000
550100
2A5540
165650
069A40
006400
005400
015000
015000
005000
ENDCHAR
STARTCHAR Egrave
ENCODING 200
SWIDTH 706 0
DWIDTH 8 0
BBX 8 14 0 0
BITMAP
1000
6500
0640
0040
5655
5655
5655
5500
5650
5690
5640
5500
56AA
56AA
ENDCHAR
STARTCHAR Eacute
ENCODING 201
SWIDTH 706 0
DWIDTH 8 0
BBX 8 13 0 0
BITMAP
0019
0194
0040
5655
5655
5655
5500
5650
5690
5640
5500
56AA
56AA
ENDCHAR
STARTCHAR Ecircumflex
ENCODING 202
SWIDTH 706 0
DWIDTH 8 0
BBX 8 14 0 0
BITMAP
0180
0150
0550
0000
5655
5655
5655
5500
5650
5690
5640
5500
56AA
56AA
ENDCHAR
STARTCHAR Edieresis
ENCODING 203
SWIDTH 706 0
DWIDTH 8 0
BBX 8 12 0 0
BITMAP
1528
0000
5655
5655
5655
5500
5650
5690
5640
5500
56AA
56AA
ENDCHAR
STARTCHAR Igrave
ENCODING 204
SWIDTH 338 0
DWIDTH 4 0
BBX 6 13 -2 0
BITMAP
6500
1640
0100
0550
0550
0550
0550
0550
0550
0550
0550
0550
0550
ENDCHAR
STARTCHAR Iacute
ENCODING 205
SWIDTH 338 0
DWIDTH 4 0
BBX 6 13 0 0
BITMAP
0590
1940
0400
5500
5500
5500
5500
5500
5500
5500
5500
5500
5500
ENDCHAR
STARTCHAR Icircumflex
ENCODING 206
SWIDTH 338 0
DWIDTH 4 0
BBX 4 14 0 0
BITMAP
24
59
55
00
55
55
55
55
55
55
55
55
55
55
ENDCHAR
STARTCHAR Idieresis
ENCODING 207
SWIDTH 338 0
DWIDTH 4 0
BBX 6 12 -1 0
BITMAP
6590
0000
1540
1540
1540
1540
1540
1540
1540
1540
1540
1540
ENDCHAR
STARTCHAR Eth
ENCODING 208
SWIDTH 905 0
DWIDTH 11 0
BBX 11 10 0 0
BITMAP
555500
655580
66A960
6555A4
554154
6A4154
650164
65AAA0
66AA90
6AA900
ENDCHAR
STARTCHAR Ntilde
ENCODING 209
SWIDTH 877 0
DWIDTH 11 0
BBX 10 13 0 0
BITMAP
055540
15A940
005500
550150
5A42A0
5A92A0
56A2A0
55A6A0
56A9A0
556A60
551AA0
5516A0
5506A0
ENDCHAR
STARTCHAR Ograve
ENCODING 210
SWIDTH 933 0
DWIDTH 11 0
BBX 11 14 0 -1
BITMAP
094000
01A400
001000
01A940
16AA50
1A9AA0
554154
5501A4
5500A4
550154
2A55A4
165650
069A40
005400
ENDCHAR
STARTCHAR Oacute
ENCODING 211
SWIDTH 933 0
DWIDTH 11 0
BBX 11 15 0 -1
BITMAP
000040
000580
002900
001000
01A940
16AA50
1A9AA0
554154
5501A4
5500A4
550154
2A55A4
165650
069A40
005400
ENDCHAR
STARTCHAR Ocircumflex
ENCODING 212
SWIDTH 933 0
DWIDTH 11 0
BBX 11 15 0 -1
BITMAP
006400
005400
005900
000000
01A940
16AA50
1A9AA0
554154
5501A4
5500A4
550154
2A55A4
165650
069A40
005400
ENDCHAR
STARTCHAR Otilde
ENCODING 213
SWIDTH 933 0
DWIDTH 11 0
BBX 11 14 0 -1
BITMAP
055540
06AA80
005500
01A940
16AA50
1A9AA0
554154
5501A4
5500A4
550154
2A55A4
165650
069A40
005400
ENDCHAR
STARTCHAR Odieresis
ENCODING 214
SWIDTH 933 0
DWIDTH 11 0
BBX 11 13 0 -1
BITMAP
064540
000000
01A940
16AA50
1A9AA0
554154
5501A4
5500A4
550154
2A55A4
165650
069A40
005400
ENDCHAR
STARTCHAR multiply
ENCODING 215
SWIDTH 790 0
DWIDTH 9 0
BBX 9 9 0 0
BITMAP
551540
566A40
15A900
0A5500
06A800
065400
156900
2A9540
556A80
ENDCHAR
STARTCHAR Oslash
ENCODING 216
SWIDTH 938 0
DWIDTH 11 0
BBX 11 13 0 -2
BITMAP
000150
01A950
16AA50
2A9AA0
594194
5501A4
5500A4
550194
2A55A4
165650
0A9A40
195400
050000
ENDCHAR
STARTCHAR Ugrave
ENCODING 217
SWIDTH 905 0
DWIDTH 11 0
BBX 11 15 0 -1
BITMAP
040000
094000
019000
001000
550154
550164
550164
550164
550164
550164
550164
265660
155590
069A40
005400
ENDCHAR
STARTCHAR Uacute
ENCODING 218
SWIDTH 905 0
DWIDTH 11 0
BBX 11 14 0 -1
BITMAP
000680
006900
001000
550154
550164
550164
550164
550164
550164
550164
265660
155590
069A40
005400
ENDCHAR
STARTCHAR Ucircumflex
ENCODING 219
SWIDTH 905 0
DWIDTH 11 0
BBX 11 15 0 -1
BITMAP
005400
005400
019400
000000
550154
550164
550164
550164
550164
550164
550164
265660
155590
069A40
005400
ENDCHAR
STARTCHAR Udieresis
ENCODING 220
SWIDTH 905 0
DWIDTH 11 0
BBX 11 13 0 -1
BITMAP
054640
000000
550154
550164
550164
550164
550164
550164
550164
265660
155590
069A40
005400
ENDCHAR
STARTCHAR Yacute
ENCODING 221
SWIDTH 789 0
DWIDTH 9 0
BBX 9 14 0 0
BITMAP
000100
001640
006400
004000
550540
651940
165640
196500
069900
05A400
026400
016400
016400
016400
ENDCHAR
STARTCHAR Thorn
ENCODING 222
SWIDTH 798 0
DWIDTH 10 0
BBX 9 11 0 -1
BITMAP
550000
56A400
56AA40
56AA40
550680
550680
565A40
565940
56A900
565000
550000
ENDCHAR
STARTCHAR germandbls
ENCODING 223
SWIDTH 826 0
DWIDTH 10 0
BBX 10 11 0 -1
BITMAP
06A900
26AA40
555590
565990
56A980
565A90
550550
56A950
56AA80
56A900
550000
ENDCHAR
STARTCHAR agrave
ENCODING 224
SWIDTH 832 0
DWIDTH 10 0
BBX 10 13 0 -1
BITMAP
190000
059000
004000
015400
155600
19AA80
555590
590550
550550
695950
1A5950
06A950
004000
ENDCHAR
STARTCHAR aacute
ENCODING 225
SWIDTH 832 0
DWIDTH 10 0
BBX 10 14 0 -1
BITMAP
000100
001640
006500
000000
015400
155600
19AA80
555590
590550
550550
695950
1A5950
06A950
004000
ENDCHAR
STARTCHAR acircumflex
ENCODING 226
SWIDTH 832 0
DWIDTH 10 0
BBX 10 13 0 -1
BITMAP
009000
016000
015400
015400
155600
19AA80
555590
590550
550550
695950
1A5950
06A950
004000
ENDCHAR
STARTCHAR atilde
ENCODING 227
SWIDTH 832 0
DWIDTH 10 0
BBX 10 13 0 -1
BITMAP
155540
16AA00
005400
015400
155600
19AA80
555590
590550
550550
695950
1A5950
06A950
004000
ENDCHAR
STARTCHAR adieresis
ENCODING 228
SWIDTH 832 0
DWIDTH 10 0
BBX 10 12 0 -1
BITMAP
0A1500
000000
015400
155600
19AA80
555590
590550
550550
695950
1A5950
06A950
004000
ENDCHAR
STARTCHAR aring
ENCODING 229
SWIDTH 832 0
DWIDTH 10 0
BBX 10 14 0 -1
BITMAP
005000
015400
015400
005000
015400
155600
19AA80
555590
590550
550550
695950
1A5950
06A950
004000
ENDCHAR
STARTCHAR ae
ENCODING 230
SWIDTH 1166 0
DWIDTH 14 0
BBX 14 10 0 -1
BITMAP
01545550
15566550
19AAA550
5555A540
59056A80
55056540
69595000
1A596A90
06A96A90
00400000
ENDCHAR
STARTCHAR ccedilla
ENCODING 231
SWIDTH 736 0
DWIDTH 9 0
BBX 9 14 0 -5
BITMAP
015400
19A640
1AA500
555400
590000
550000
595400
165A40
065900
00A000
015000
024000
025000
015000
ENDCHAR
STARTCHAR egrave
ENCODING 232
SWIDTH 666 0
DWIDTH 8 0
BBX 8 13 0 0
BITMAP
1000
6500
1640
0100
5555
5655
5655
5654
56A8
5654
5500
56A9
56A9
ENDCHAR
STARTCHAR eacute
ENCODING 233
SWIDTH 666 0
DWIDTH 8 0
BBX 8 12 0 0
BITMAP
0059
0194
0040
5555
5655
5655
5654
56A8
5654
5500
56A9
56A9
ENDCHAR
STARTCHAR ecircumflex
ENCODING 234
SWIDTH 666 0
DWIDTH 8 0
BBX 8 12 0 0
BITMAP
0240
0590
0550
5555
5655
5655
5654
56A8
5654
5500
56A9
56A9
ENDCHAR
STARTCHAR edieresis
ENCODING 235
SWIDTH 666 0
DWIDTH 8 0
BBX 8 11 0 0
BITMAP
1964
0000
5555
5655
5655
5654
56A8
5654
5500
56A9
56A9
ENDCHAR
STARTCHAR igrave
ENCODING 236
SWIDTH 337 0
DWIDTH 4 0
BBX 6 12 -2 0
BITMAP
6500
1640
0100
0550
0550
0550
0550
0550
0550
0550
0550
0550
ENDCHAR
STARTCHAR iacute
ENCODING 237
SWIDTH 337 0
DWIDTH 4 0
BBX 6 12 0 0
BITMAP
0590
1940
0400
5500
5500
5500
5500
5500
5500
5500
5500
5500
ENDCHAR
STARTCHAR icircumflex
ENCODING 238
SWIDTH 337 0
DWIDTH 4 0
BBX 4 12 0 0
BITMAP
24
59
55
55
55
55
55
55
55
55
55
55
ENDCHAR
STARTCHAR idieresis
ENCODING 239
SWIDTH 337 0
DWIDTH 4 0
BBX 6 11 -1 0
BITMAP
6590
0000
1540
1540
1540
1540
1540
1540
1540
1540
1540
ENDCHAR
STARTCHAR eth
ENCODING 240
SWIDTH 783 0
DWIDTH 9 0
BBX 9 11 0 -1
BITMAP
16A400
16A500
056940
001A40
169A80
5A9A80
595A80
595940
595940
1A6500
015000
ENDCHAR
STARTCHAR ntilde
ENCODING 241
SWIDTH 787 0
DWIDTH 9 0
BBX 9 12 0 0
BITMAP
155540
1AAA00
015400
550140
6A4640
5A8640
569640
56A640
55A940
546A40
546A80
541A80
ENDCHAR
STARTCHAR ograve
ENCODING 242
SWIDTH 833 0
DWIDTH 10 0
BBX 10 13 0 -1
BITMAP
190000
059000
004000
015400
19A640
1AAA40
555550
590550
550550
595690
165940
065900
005000
ENDCHAR
STARTCHAR oacute
ENCODING 243
SWIDTH 833 0
DWIDTH 10 0
BBX 10 14 0 -1
BITMAP
000100
001640
006500
001000
015400
19A640
1AAA40
555550
590550
550550
595690
165940
065900
005000
ENDCHAR
STARTCHAR ocircumflex
ENCODING 244
SWIDTH 833 0
DWIDTH 10 0
BBX 10 13 0 -1
BITMAP
009000
016400
015400
015400
19A640
1AAA40
555550
590550
550550
595690
165940
065900
005000
ENDCHAR
STARTCHAR otilde
ENCODING 245
SWIDTH 833 0
DWIDTH 10 0
BBX 10 13 0 -1
BITMAP
055540
16A940
005400
015400
19A640
1AAA40
555550
590550
550550
595690
165940
065900
005000
ENDCHAR
STARTCHAR odieresis
ENCODING 246
SWIDTH 833 0
DWIDTH 10 0
BBX 10 12 0 -1
BITMAP
065900
000000
015400
19A640
1AAA40
555550
590550
550550
595690
165940
065900
005000
ENDCHAR
STARTCHAR divide
ENCODING 247
SWIDTH 260 0
DWIDTH 3 0
BBX 4 8 0 0
BITMAP
54
54
54
55
55
54
54
54
ENDCHAR
STARTCHAR oslash
ENCODING 248
SWIDTH 832 0
DWIDTH 10 0
BBX 10 11 0 -1
BITMAP
000500
015940
199640
1AA680
555550
590550
550550
555590
165980
165900
055000
ENDCHAR
STARTCHAR ugrave
ENCODING 249
SWIDTH 795 0
DWIDTH 10 0
BBX 9 13 0 -1
BITMAP
190000
059000
004000
550540
550A80
550A80
550A80
550A80
550A80
655940
195540
066500
015000
ENDCHAR
STARTCHAR uacute
ENCODING 250
SWIDTH 795 0
DWIDTH 10 0
BBX 9 14 0 -1
BITMAP
000100
001640
006400
004000
550540
550A80
550A80
550A80
550A80
550A80
655940
195540
066500
015000
ENDCHAR
STARTCHAR ucircumflex
ENCODING 251
SWIDTH 795 0
DWIDTH 10 0
BBX 9 13 0 -1
BITMAP
009000
016000
015400
550540
550A80
550A80
550A80
550A80
550A80
655940
195540
066500
015000
ENDCHAR
STARTCHAR udieresis
ENCODING 252
SWIDTH 795 0
DWIDTH 10 0
BBX 9 12 0 -1
BITMAP
0A1500
000000
550540
550A80
550A80
550A80
550A80
550A80
655940
195540
066500
015000
ENDCHAR
STARTCHAR yacute
ENCODING 253
SWIDTH 733 0
DWIDTH 9 0
BBX 9 12 0 0
BITMAP
001A00
01A400
004000
541540
551A40
1A6500
155900
069400
066400
02A000
02A000
02A000
ENDCHAR
STARTCHAR thorn
ENCODING 254
SWIDTH 833 0
DWIDTH 10 0
BBX 10 11 0 -1
BITMAP
550000
550000
550000
55AA40
55AA40
555550
555550
555650
555540
555400
550000
ENDCHAR
STARTCHAR ydieresis
ENCODING 255
SWIDTH 733 0
DWIDTH 9 0
BBX 9 11 0 0
BITMAP
151900
000000
541540
551A40
1A6500
155900
069400
066400
02A000
02A000
02A000
ENDCHAR
STARTCHAR Amacron
ENCODING 256
SWIDTH 936 0
DWIDTH 11 0
BBX 11 10 0 0
BITMAP
005500
015500
016A00
065540
056A40
0A8690
155950
16AAA0
6A5554
550194
ENDCHAR
STARTCHAR amacron
ENCODING 257
SWIDTH 832 0
DWIDTH 10 0
BBX 10 10 0 -1
BITMAP
015400
155600
19AA80
555590
590550
550550
695950
1A5950
06A950
004000
ENDCHAR
STARTCHAR Abreve
ENCODING 258
SWIDTH 936 0
DWIDTH 11 0
BBX 11 12 0 0
BITMAP
005500
005400
005500
015500
016A00
065540
056A40
0A8690
155950
16AAA0
6A5554
550194
ENDCHAR
STARTCHAR abreve
ENCODING 259
SWIDTH 832 0
DWIDTH 10 0
BBX 10 12 0 -1
BITMAP
015400
005000
015400
155600
19AA80
555590
590550
550550
695950
1A5950
06A950
004000
ENDCHAR
STARTCHAR Aogonek
ENCODING 260
SWIDTH 937 0
DWIDTH 11 0
BBX 11 13 0 -3
BITMAP
005500
015500
016A00
025540
055A40
0A9590
195A50
15AAA0
2A5654
5551A4
015000
014000
015000
ENDCHAR
STARTCHAR aogonek
ENCODING 261
SWIDTH 832 0
DWIDTH 10 0
BBX 10 14 0 -5
BITMAP
015400
155600
19AA80
555590
590550
550550
695950
1A5950
06A950
008000
024000
064000
064000
014000
ENDCHAR
STARTCHAR Cacute
ENCODING 262
SWIDTH 852 0
DWIDTH 10 0
BBX 10 15 0 -1
BITMAP
000040
000580
002900
001000
01A940
16A950
1A9A50
554100
550000
550000
550100
2A5540
165650
069A40
005400
ENDCHAR
STARTCHAR cacute
ENCODING 263
SWIDTH 736 0
DWIDTH 9 0
BBX 9 14 0 -1
BITMAP
000100
001640
006500
001000
015400
19A640
1AA500
555400
590000
550000
595400
165A40
065900
005000
ENDCHAR
STARTCHAR Cdotaccent
ENCODING 266
SWIDTH 852 0
DWIDTH 10 0
BBX 10 14 0 -1
BITMAP
005400
005400
006400
01A940
16A950
1A9A50
554100
550000
550000
550100
2A5540
165650
069A40
005400
ENDCHAR
STARTCHAR cdotaccent
ENCODING 267
SWIDTH 736 0
DWIDTH 9 0
BBX 9 13 0 -1
BITMAP
005000
005000
005000
015400
19A640
1AA500
555400
590000
550000
595400
165A40
065900
005000
ENDCHAR
STARTCHAR Ccaron
ENCODING 268
SWIDTH 852 0
DWIDTH 10 0
BBX 10 15 0 -1
BITMAP
005500
005400
006400
000000
01A940
16A950
1A9A50
554100
550000
550000
550100
2A5540
165650
069A40
005400
ENDCHAR
STARTCHAR ccaron
ENCODING 269
SWIDTH 736 0
DWIDTH 9 0
BBX 9 13 0 -1
BITMAP
015400
016400
009000
015400
19A640
1AA500
555400
590000
550000
595400
165A40
065900
005000
ENDCHAR
STARTCHAR Dcaron
ENCODING 270
SWIDTH 886 0
DWIDTH 11 0
BBX 11 14 0 0
BITMAP
015400
005400
006400
000000
555500
555680
5AA550
5656A0
5501A4
5501A4
5506A0
56AA90
5AAA80
6AA900
ENDCHAR
STARTCHAR dcaron
ENCODING 271
SWIDTH 1084 0
DWIDTH 13 0
BBX 13 9 0 0
BITMAP
55540540
555A0540
55568540
56559500
55055000
55055000
56A95000
5AA94000
6AA50000
ENDCHAR
STARTCHAR Dcroat
ENCODING 272
SWIDTH 888 0
DWIDTH 11 0
BBX 12 10 -1 0
BITMAP
155540
1555A0
16A954
1595A8
556069
154069
1551A8
15AAA4
16AAA0
1AAA40
ENDCHAR
STARTCHAR dcroat
ENCODING 273
SWIDTH 833 0
DWIDTH 10 0
BBX 11 9 -1 0
BITMAP
155500
155680
1555A0
159564
555154
659154
15AA54
16AA50
1AA940
ENDCHAR
STARTCHAR Emacron
ENCODING 274
SWIDTH 706 0
DWIDTH 8 0
BBX 8 10 0 0
BITMAP
5655
5655
5655
5500
5650
5690
5640
5500
56AA
56AA
ENDCHAR
STARTCHAR emacron
ENCODING 275
SWIDTH 666 0
DWIDTH 8 0
BBX 8 9 0 0
BITMAP
5555
5655
5655
5654
56A8
5654
5500
56A9
56A9
ENDCHAR
STARTCHAR Ebreve
ENCODING 276
SWIDTH 706 0
DWIDTH 8 0
BBX 8 12 0 0
BITMAP
0550
0140
5655
5655
5655
5500
5650
5690
5640
5500
56AA
56AA
ENDCHAR
STARTCHAR ebreve
ENCODING 277
SWIDTH 666 0
DWIDTH 8 0
BBX 8 11 0 0
BITMAP
0550
0140
5555
5655
5655
5654
56A8
5654
5500
56A9
56A9
ENDCHAR
STARTCHAR Edotaccent
ENCODING 278
SWIDTH 706 0
DWIDTH 8 0
BBX 8 13 0 0
BITMAP
0140
0140
0140
5655
5655
5655
5500
5650
5690
5640
5500
56AA
56AA
ENDCHAR
STARTCHAR edotaccent
ENCODING 279
SWIDTH 666 0
DWIDTH 8 0
BBX 8 12 0 0
BITMAP
0140
0140
0140
5555
5655
5655
5654
56A8
5654
5500
56A9
56A9
ENDCHAR
STARTCHAR Eogonek
ENCODING 280
SWIDTH 706 0
DWIDTH 8 0
BBX 8 14 0 -4
BITMAP
5655
5655
5655
5500
5650
5690
5640
5500
56AA
56AB
0009
0009
000A
0005
ENDCHAR
STARTCHAR eogonek
ENCODING 281
SWIDTH 666 0
DWIDTH 8 0
BBX 8 12 0 -3
BITMAP
5555
5655
5655
5654
56A8
5654
5500
56A9
56AA
0015
0014
0015
ENDCHAR
STARTCHAR Ecaron
ENCODING 282
SWIDTH 706 0
DWIDTH 8 0
BBX 8 14 0 0
BITMAP
0550
0150
0280
0000
5655
5655
5655
5500
5650
5690
5640
5500
56AA
56AA
ENDCHAR
STARTCHAR ecaron
ENCODING 283
SWIDTH 666 0
DWIDTH 8 0
BBX 8 12 0 0
BITMAP
0550
0590
0240
5555
5655
5655
5654
56A8
5654
5500
56A9
56A9
ENDCHAR
STARTCHAR Gbreve
ENCODING 286
SWIDTH 908 0
DWIDTH 11 0
BBX 11 13 0 -1
BITMAP
005500
005400
01A940
16A950
1A9A50
554100
550000
590154
550154
165654
155654
059A54
005400
ENDCHAR
STARTCHAR gbreve
ENCODING 287
SWIDTH 827 0
DWIDTH 10 0
BBX 10 12 0 -1
BITMAP
015400
005000
015400
19A640
1AA500
555400
590000
550550
595950
165950
065950
005000
ENDCHAR
STARTCHAR Gdotaccent
ENCODING 288
SWIDTH 908 0
DWIDTH 11 0
BBX 11 14 0 -1
BITMAP
005400
005400
006400
01A940
16A950
1A9A50
554100
550000
590154
550154
165654
155654
059A54
005400
ENDCHAR
STARTCHAR gdotaccent
ENCODING 289
SWIDTH 827 0
DWIDTH 10 0
BBX 10 13 0 -1
BITMAP
005000
005000
005000
015400
19A640
1AA500
555400
590000
550550
595950
165950
065950
005000
ENDCHAR
STARTCHAR Gcommaaccent
ENCODING 290
SWIDTH 908 0
DWIDTH 11 0
BBX 11 15 0 -5
BITMAP
01A940
16A950
1A9A50
554100
550000
590154
550154
165654
155654
059A54
005400
005400
005400
005400
005000
ENDCHAR
STARTCHAR gcommaaccent
ENCODING 291
SWIDTH 827 0
DWIDTH 10 0
BBX 10 10 0 -1
BITMAP
015400
19A640
1AA500
555400
590000
550550
595950
165950
065950
005000
ENDCHAR
STARTCHAR Hcircumflex
ENCODING 292
SWIDTH 901 0
DWIDTH 11 0
BBX 11 14 0 0
BITMAP
005400
005400
019400
000000
550154
550164
550164
550164
565664
56AA64
565564
550164
550164
550164
ENDCHAR
STARTCHAR hcircumflex
ENCODING 293
SWIDTH 830 0
DWIDTH 10 0
BBX 10 12 0 0
BITMAP
009000
016400
015400
550550
550550
550550
565950
565950
565950
550550
550550
550550
ENDCHAR
STARTCHAR Hbar
ENCODING 294
SWIDTH 901 0
DWIDTH 11 0
BBX 11 10 0 0
BITMAP
550154
555560
965564
550164
565664
56AA64
565564
550164
550164
550164
ENDCHAR
STARTCHAR hbar
ENCODING 295
SWIDTH 830 0
DWIDTH 10 0
BBX 10 9 0 0
BITMAP
550550
555550
965960
565950
565950
565950
550550
550550
550550
ENDCHAR
STARTCHAR Itilde
ENCODING 296
SWIDTH 338 0
DWIDTH 4 0
BBX 8 13 -2 0
BITMAP
1555
56A5
0150
0550
0550
0550
0550
0550
0550
0550
0550
0550
0550
ENDCHAR
STARTCHAR itilde
ENCODING 297
SWIDTH 337 0
DWIDTH 4 0
BBX 8 12 -2 0
BITMAP
1555
56A5
0150
0550
0550
0550
0550
0550
0550
0550
0550
0550
ENDCHAR
STARTCHAR Imacron
ENCODING 298
SWIDTH 338 0
DWIDTH 4 0
BBX 4 10 0 0
BITMAP
55
55
55
55
55
55
55
55
55
55
ENDCHAR
STARTCHAR imacron
ENCODING 299
SWIDTH 337 0
DWIDTH 4 0
BBX 4 9 0 0
BITMAP
55
55
55
55
55
55
55
55
55
ENDCHAR
STARTCHAR Ibreve
ENCODING 300
SWIDTH 338 0
DWIDTH 4 0
BBX 4 12 0 0
BITMAP
55
14
55
55
55
55
55
55
55
55
55
55
ENDCHAR
STARTCHAR ibreve
ENCODING 301
SWIDTH 337 0
DWIDTH 4 0
BBX 4 11 0 0
BITMAP
55
14
55
55
55
55
55
55
55
55
55
ENDCHAR
STARTCHAR Iogonek
ENCODING 302
SWIDTH 338 0
DWIDTH 4 0
BBX 4 13 0 -3
BITMAP
55
55
55
55
55
55
55
55
55
5A
15
14
15
ENDCHAR
STARTCHAR iogonek
ENCODING 303
SWIDTH 337 0
DWIDTH 4 0
BBX 4 12 0 -3
BITMAP
55
55
55
55
55
55
55
55
5A
15
14
15
ENDCHAR
STARTCHAR Idotaccent
ENCODING 304
SWIDTH 338 0
DWIDTH 4 0
BBX 4 13 0 0
BITMAP
14
14
14
55
55
55
55
55
55
55
55
55
55
ENDCHAR
STARTCHAR dotlessi
ENCODING 305
SWIDTH 337 0
DWIDTH 4 0
BBX 4 9 0 0
BITMAP
55
55
55
55
55
55
55
55
55
ENDCHAR
STARTCHAR IJ
ENCODING 306
SWIDTH 774 0
DWIDTH 9 0
BBX 9 11 0 -1
BITMAP
550540
551940
551940
551940
551940
551940
551940
556940
555A40
555900
005000
ENDCHAR
STARTCHAR ij
ENCODING 307
SWIDTH 729 0
DWIDTH 9 0
BBX 9 10 0 -1
BITMAP
551500
551640
551640
551640
551640
551640
551640
556A00
556500
006400
ENDCHAR
STARTCHAR Jcircumflex
ENCODING 308
SWIDTH 434 0
DWIDTH 5 0
BBX 5 15 0 -1
BITMAP
0900
0640
1540
0000
1540
1940
1940
1940
1940
1940
1940
6540
5A00
6900
5000
ENDCHAR
STARTCHAR jcircumflex
ENCODING 309
SWIDTH 393 0
DWIDTH 5 0
BBX 5 13 0 -1
BITMAP
0900
1600
1540
1500
1640
1640
1640
1640
1640
1A40
6A00
6500
6400
ENDCHAR
STARTCHAR Kcommaaccent
ENCODING 310
SWIDTH 815 0
DWIDTH 10 0
BBX 10 15 0 -5
BITMAP
550550
551940
551540
556500
555900
56A900
555500
552A40
551540
550A90
000000
00A000
006000
006000
005000
ENDCHAR
STARTCHAR kcommaaccent
ENCODING 311
SWIDTH 801 0
DWIDTH 10 0
BBX 9 14 0 -5
BITMAP
550540
551540
551640
555500
55A900
555900
556600
551540
551A80
000000
00A000
006000
005000
005000
ENDCHAR
STARTCHAR kgreenlandic
ENCODING 312
SWIDTH 801 0
DWIDTH 10 0
BBX 9 9 0 0
BITMAP
550540
551540
551640
555500
55A900
555900
556600
551540
551A80
ENDCHAR
STARTCHAR Lacute
ENCODING 313
SWIDTH 604 0
DWIDTH 7 0
BBX 8 14 0 0
BITMAP
0004
0059
0190
0100
5500
5500
5500
5500
5500
5500
5500
5500
56A8
56A8
ENDCHAR
STARTCHAR lacute
ENCODING 314
SWIDTH 583 0
DWIDTH 7 0
BBX 7 12 0 0
BITMAP
0590
1940
0400
5500
5500
5500
5500
5500
5500
5500
56A4
56A4
ENDCHAR
STARTCHAR Lcommaaccent
ENCODING 315
SWIDTH 604 0
DWIDTH 7 0
BBX 7 15 0 -5
BITMAP
5500
5500
5500
5500
5500
5500
5500
5500
56A8
56A8
0000
0640
0540
0140
0100
ENDCHAR
STARTCHAR lcommaaccent
ENCODING 316
SWIDTH 583 0
DWIDTH 7 0
BBX 7 14 0 -5
BITMAP
5500
5500
5500
5500
5500
5500
5500
56A4
56A4
0000
0540
0540
0540
0500
ENDCHAR
STARTCHAR Lcaron
ENCODING 317
SWIDTH 856 0
DWIDTH 10 0
BBX 10 10 0 0
BITMAP
550190
550090
550050
550040
550000
550000
550000
550000
56A800
56A800
ENDCHAR
STARTCHAR lcaron
ENCODING 318
SWIDTH 584 0
DWIDTH 7 0
BBX 7 9 0 0
BITMAP
5554
5554
5554
5550
5500
5500
5500
56A4
56A4
ENDCHAR
STARTCHAR Ldot
ENCODING 319
SWIDTH 604 0
DWIDTH 7 0
BBX 7 10 0 0
BITMAP
5500
5500
5500
5500
5550
5550
5550
5500
56A8
56A8
ENDCHAR
STARTCHAR ldot
ENCODING 320
SWIDTH 582 0
DWIDTH 7 0
BBX 7 9 0 0
BITMAP
5500
5500
5550
5550
5550
5500
5500
56A4
56A4
ENDCHAR
STARTCHAR Lslash
ENCODING 321
SWIDTH 604 0
DWIDTH 7 0
BBX 8 10 -1 0
BITMAP
1540
1540
1554
1564
5554
5540
6540
1540
15AA
15AA
ENDCHAR
STARTCHAR lslash
ENCODING 322
SWIDTH 581 0
DWIDTH 7 0
BBX 8 9 -1 0
BITMAP
1540
1540
1554
1550
5550
2540
1540
15A9
15A9
ENDCHAR
STARTCHAR Nacute
ENCODING 323
SWIDTH 877 0
DWIDTH 11 0
BBX 10 13 0 0
BITMAP
000640
006500
001000
550150
5A42A0
5A92A0
56A2A0
55A6A0
56A9A0
556A60
551AA0
5516A0
5506A0
ENDCHAR
STARTCHAR nacute
ENCODING 324
SWIDTH 787 0
DWIDTH 9 0
BBX 9 13 0 0
BITMAP
000100
001640
006400
004000
550140
6A4640
5A8640
569640
56A640
55A940
546A40
546A80
541A80
ENDCHAR
STARTCHAR Ncommaaccent
ENCODING 325
SWIDTH 877 0
DWIDTH 11 0
BBX 10 15 0 -5
BITMAP
550150
5A42A0
5A92A0
56A2A0
55A6A0
56A9A0
556A60
551AA0
5516A0
5506A0
000000
006400
006400
005400
005000
ENDCHAR
STARTCHAR ncommaaccent
ENCODING 326
SWIDTH 787 0
DWIDTH 9 0
BBX 9 14 0 -5
BITMAP
550140
6A4640
5A8640
569640
56A640
55A940
546A40
546A80
541A80
000000
019000
015000
005000
004000
ENDCHAR
STARTCHAR Ncaron
ENCODING 327
SWIDTH 877 0
DWIDTH 11 0
BBX 10 14 0 0
BITMAP
015400
005400
00A000
000000
550150
5A42A0
5A92A0
56A2A0
55A6A0
56A9A0
556A60
551AA0
5516A0
5506A0
ENDCHAR
STARTCHAR ncaron
ENCODING 328
SWIDTH 787 0
DWIDTH 9 0
BBX 9 12 0 0
BITMAP
015400
016000
009000
550140
6A4640
5A8640
569640
56A640
55A940
546A40
546A80
541A80
ENDCHAR
STARTCHAR Eng
ENCODING 330
SWIDTH 874 0
DWIDTH 11 0
BBX 10 14 0 -4
BITMAP
554150
6642A0
5992A0
5556A0
5666A0
5596A0
5556A0
5516A0
5516A0
5506A0
000690
001990
001680
001500
ENDCHAR
STARTCHAR eng
ENCODING 331
SWIDTH 691 0
DWIDTH 8 0
BBX 8 12 0 -3
BITMAP
5505
6A55
59A5
55A5
5665
5555
5465
5455
5425
0015
0025
0064
ENDCHAR
STARTCHAR Omacron
ENCODING 332
SWIDTH 933 0
DWIDTH 11 0
BBX 11 11 0 -1
BITMAP
01A940
16AA50
1A9AA0
554154
5501A4
5500A4
550154
2A55A4
165650
069A40
005400
ENDCHAR
STARTCHAR omacron
ENCODING 333
SWIDTH 833 0
DWIDTH 10 0
BBX 10 10 0 -1
BITMAP
015400
19A640
1AAA40
555550
590550
550550
595690
165940
065900
005000
ENDCHAR
STARTCHAR Obreve
ENCODING 334
SWIDTH 933 0
DWIDTH 11 0
BBX 11 13 0 -1
BITMAP
005500
005400
01A940
16AA50
1A9AA0
554154
5501A4
5500A4
550154
2A55A4
165650
069A40
005400
ENDCHAR
STARTCHAR obreve
ENCODING 335
SWIDTH 833 0
DWIDTH 10 0
BBX 10 12 0 -1
BITMAP
015400
005000
015400
19A640
1AAA40
555550
590550
550550
595690
165940
065900
005000
ENDCHAR
STARTCHAR Ohungarumlaut
ENCODING 336
SWIDTH 933 0
DWIDTH 11 0
BBX 12 15 0 -1
BITMAP
000004
006859
069190
010100
01A940
16AA50
1A9AA0
554154
5501A4
5500A4
550154
2A55A4
165650
069A40
005400
ENDCHAR
STARTCHAR ohungarumlaut
ENCODING 337
SWIDTH 833 0
DWIDTH 10 0
BBX 11 14 0 -1
BITMAP
001000
016464
064650
040100
015400
19A640
1AAA40
555550
590550
550550
595690
165940
065900
005000
ENDCHAR
STARTCHAR OE
ENCODING 338
SWIDTH 1317 0
DWIDTH 16 0
BBX 16 11 0 -1
BITMAP
01A94554
16A95954
1A9A5954
59029400
55015940
59005A80
55015540
1A555400
16569AA9
069A5AA9
00540000
ENDCHAR
STARTCHAR oe
ENCODING 339
SWIDTH 1174 0
DWIDTH 14 0
BBX 14 10 0 -1
BITMAP
01545550
19556550
15056550
55566540
55056A90
55056540
54525000
14516A90
06696A90
00500000
ENDCHAR
STARTCHAR Racute
ENCODING 340
SWIDTH 843 0
DWIDTH 10 0
BBX 10 13 0 0
BITMAP
006800
069000
010000
555500
555580
5AA950
565650
565650
565650
56AA40
556A40
551940
550A80
ENDCHAR
STARTCHAR Rcommaaccent
ENCODING 342
SWIDTH 843 0
DWIDTH 10 0
BBX 10 15 0 -5
BITMAP
555500
555580
5AA950
565650
565650
565650
56AA40
556A40
551940
550A80
000000
01A000
005000
005000
004000
ENDCHAR
STARTCHAR rcommaaccent
ENCODING 343
SWIDTH 831 0
DWIDTH 10 0
BBX 10 14 0 -5
BITMAP
555400
555640
555650
565950
565550
56AA80
56AA40
552A00
551540
000000
015000
015000
015000
014000
ENDCHAR
STARTCHAR Rcaron
ENCODING 344
SWIDTH 843 0
DWIDTH 10 0
BBX 10 14 0 0
BITMAP
154000
054000
064000
000000
555500
555580
5AA950
565650
565650
565650
56AA40
556A40
551940
550A80
ENDCHAR
STARTCHAR rcaron
ENCODING 345
SWIDTH 831 0
DWIDTH 10 0
BBX 10 12 0 0
BITMAP
015400
016400
009000
555400
555640
555650
565950
565550
56AA80
56AA40
552A00
551540
ENDCHAR
STARTCHAR Sacute
ENCODING 346
SWIDTH 682 0
DWIDTH 8 0
BBX 8 14 0 -1
BITMAP
0019
0194
0040
16A5
2AA9
5554
5650
55A4
2555
0565
0565
1555
5964
0540
ENDCHAR
STARTCHAR sacute
ENCODING 347
SWIDTH 683 0
DWIDTH 8 0
BBX 8 12 0 0
BITMAP
0019
0194
0040
0554
2559
5554
5940
56A4
1565
0015
1AA5
1AA4
ENDCHAR
STARTCHAR Scircumflex
ENCODING 348
SWIDTH 682 0
DWIDTH 8 0
BBX 8 15 0 -1
BITMAP
0240
0190
0550
0000
16A5
2AA9
5554
5650
55A4
2555
0565
0565
1555
5964
0540
ENDCHAR
STARTCHAR scircumflex
ENCODING 349
SWIDTH 683 0
DWIDTH 8 0
BBX 8 12 0 0
BITMAP
0240
0190
0550
0554
2559
5554
5940
56A4
1565
0015
1AA5
1AA4
ENDCHAR
STARTCHAR Scedilla
ENCODING 350
SWIDTH 682 0
DWIDTH 8 0
BBX 8 15 0 -5
BITMAP
16A5
2AA9
5554
5650
55A4
2555
0565
0565
1555
5964
0680
0540
0940
0940
0540
ENDCHAR
STARTCHAR scedilla
ENCODING 351
SWIDTH 683 0
DWIDTH 8 0
BBX 8 13 0 -4
BITMAP
0554
2559
5554
5940
56A4
1565
0015
1AA5
1AA4
0680
0940
0940
0140
ENDCHAR
STARTCHAR Scaron
ENCODING 352
SWIDTH 682 0
DWIDTH 8 0
BBX 8 15 0 -1
BITMAP
0550
0150
0280
0000
16A5
2AA9
5554
5650
55A4
2555
0565
0565
1555
5964
0540
ENDCHAR
STARTCHAR scaron
ENCODING 353
SWIDTH 683 0
DWIDTH 8 0
BBX 8 12 0 0
BITMAP
0550
0150
0280
0554
2559
5554
5940
56A4
1565
0015
1AA5
1AA4
ENDCHAR
STARTCHAR Tcommaaccent
ENCODING 354
SWIDTH 591 0
DWIDTH 7 0
BBX 7 14 0 -4
BITMAP
5554
5554
5A94
0A80
0A80
0A80
0A80
0A80
0A80
0A80
1600
1500
1500
0500
ENDCHAR
STARTCHAR tcommaaccent
ENCODING 355
SWIDTH 588 0
DWIDTH 7 0
BBX 7 13 0 -4
BITMAP
5554
5554
5554
0A80
0A80
0A80
0A80
0A80
0A80
1600
1500
1500
0500
ENDCHAR
STARTCHAR Tcaron
ENCODING 356
SWIDTH 591 0
DWIDTH 7 0
BBX 7 14 0 0
BITMAP
0540
0640
0540
0000
5554
5554
5A94
0A80
0A80
0A80
0A80
0A80
0A80
0A80
ENDCHAR
STARTCHAR tcaron
ENCODING 357
SWIDTH 842 0
DWIDTH 10 0
BBX 10 9 0 0
BITMAP
555550
555550
555550
0A8140
0A8000
0A8000
0A8000
0A8000
0A8000
ENDCHAR
STARTCHAR Tbar
ENCODING 358
SWIDTH 591 0
DWIDTH 7 0
BBX 7 10 0 0
BITMAP
5554
5554
5A94
0A80
5A94
0A80
0A80
0A80
0A80
0A80
ENDCHAR
STARTCHAR tbar
ENCODING 359
SWIDTH 588 0
DWIDTH 7 0
BBX 7 9 0 0
BITMAP
5554
5554
5554
0A80
5A94
5A94
5A94
0A80
0A80
ENDCHAR
STARTCHAR Utilde
ENCODING 360
SWIDTH 905 0
DWIDTH 11 0
BBX 11 14 0 -1
BITMAP
055540
0AA940
005500
550154
550164
550164
550164
550164
550164
550164
265660
155590
069A40
005400
ENDCHAR
STARTCHAR utilde
ENCODING 361
SWIDTH 795 0
DWIDTH 10 0
BBX 9 13 0 -1
BITMAP
155140
1AAA00
015400
550540
550A80
550A80
550A80
550A80
550A80
655940
195540
066500
015000
ENDCHAR
STARTCHAR Umacron
ENCODING 362
SWIDTH 905 0
DWIDTH 11 0
BBX 11 11 0 -1
BITMAP
550154
550164
550164
550164
550164
550164
550164
265660
155590
069A40
005400
ENDCHAR
STARTCHAR umacron
ENCODING 363
SWIDTH 795 0
DWIDTH 10 0
BBX 9 10 0 -1
BITMAP
550540
550A80
550A80
550A80
550A80
550A80
655940
195540
066500
015000
ENDCHAR
STARTCHAR Ubreve
ENCODING 364
SWIDTH 905 0
DWIDTH 11 0
BBX 11 13 0 -1
BITMAP
015400
005400
550154
550164
550164
550164
550164
550164
550164
265660
155590
069A40
005400
ENDCHAR
STARTCHAR ubreve
ENCODING 365
SWIDTH 795 0
DWIDTH 10 0
BBX 9 12 0 -1
BITMAP
015400
005000
550540
550A80
550A80
550A80
550A80
550A80
655940
195540
066500
015000
ENDCHAR
STARTCHAR Uring
ENCODING 366
SWIDTH 905 0
DWIDTH 11 0
BBX 11 15 0 -1
BITMAP
001000
009800
009800
005400
550154
550164
550164
550164
550164
550164
550164
265660
155590
069A40
005400
ENDCHAR
STARTCHAR uring
ENCODING 367
SWIDTH 795 0
DWIDTH 10 0
BBX 9 14 0 -1
BITMAP
005000
016000
015400
005000
550540
550A80
550A80
550A80
550A80
550A80
655940
195540
066500
015000
ENDCHAR
STARTCHAR Uhungarumlaut
ENCODING 368
SWIDTH 905 0
DWIDTH 11 0
BBX 11 15 0 -1
BITMAP
000004
006458
065190
010100
550154
550164
550164
550164
550164
550164
550164
265660
155590
069A40
005400
ENDCHAR
STARTCHAR uhungarumlaut
ENCODING 369
SWIDTH 795 0
DWIDTH 10 0
BBX 11 14 0 -1
BITMAP
001010
016164
0A4650
040100
550540
550A80
550A80
550A80
550A80
550A80
655940
195540
066500
015000
ENDCHAR
STARTCHAR Uogonek
ENCODING 370
SWIDTH 905 0
DWIDTH 11 0
BBX 11 14 0 -4
BITMAP
550154
550164
550164
550164
550164
550164
550164
265660
155590
06AA40
01A400
014000
015000
004000
ENDCHAR
STARTCHAR uogonek
ENCODING 371
SWIDTH 794 0
DWIDTH 10 0
BBX 9 13 0 -4
BITMAP
550540
550A80
550A80
550A80
550A80
550A80
655940
195540
06E500
02D000
024000
028000
014000
ENDCHAR
STARTCHAR Ycircumflex
ENCODING 374
SWIDTH 789 0
DWIDTH 9 0
BBX 9 14 0 0
BITMAP
009000
016000
015400
000000
550540
651940
165640
196500
069900
05A400
026400
016400
016400
016400
ENDCHAR
STARTCHAR ycircumflex
ENCODING 375
SWIDTH 733 0
DWIDTH 9 0
BBX 9 12 0 0
BITMAP
015000
015000
065000
541540
551A40
1A6500
155900
069400
066400
02A000
02A000
02A000
ENDCHAR
STARTCHAR Ydieresis
ENCODING 376
SWIDTH 789 0
DWIDTH 9 0
BBX 9 12 0 0
BITMAP
0A1500
000000
550540
651940
165640
196500
069900
05A400
026400
016400
016400
016400
ENDCHAR
STARTCHAR Zacute
ENCODING 377
SWIDTH 854 0
DWIDTH 10 0
BBX 10 13 0 0
BITMAP
000640
006500
001000
555550
555590
6A9690
155A90
01AA40
16A900
5A9000
6A5A90
69AA90
6AAA90
ENDCHAR
STARTCHAR zacute
ENCODING 378
SWIDTH 714 0
DWIDTH 9 0
BBX 8 12 0 0
BITMAP
0019
0194
0040
5555
5595
5555
02A4
0554
0990
2950
556A
6AAA
ENDCHAR
STARTCHAR Zdotaccent
ENCODING 379
SWIDTH 854 0
DWIDTH 10 0
BBX 10 13 0 0
BITMAP
005000
005000
005000
555550
555590
6A9690
155A90
01AA40
16A900
5A9000
6A5A90
69AA90
6AAA90
ENDCHAR
STARTCHAR zdotaccent
ENCODING 380
SWIDTH 714 0
DWIDTH 9 0
BBX 8 12 0 0
BITMAP
0140
0150
0140
5555
5595
5555
02A4
0554
0990
2950
556A
6AAA
ENDCHAR
STARTCHAR Zcaron
ENCODING 381
SWIDTH 854 0
DWIDTH 10 0
BBX 10 14 0 0
BITMAP
015400
006400
009000
000000
555550
555590
6A9690
155A90
01AA40
16A900
5A9000
6A5A90
69AA90
6AAA90
ENDCHAR
STARTCHAR zcaron
ENCODING 382
SWIDTH 714 0
DWIDTH 9 0
BBX 8 12 0 0
BITMAP
0550
0150
0190
5555
5595
5555
02A4
0554
0990
2950
556A
6AAA
ENDCHAR
STARTCHAR florin
ENCODING 402
SWIDTH 388 0
DWIDTH 5 0
BBX 4 11 0 -1
BITMAP
0A
16
15
56
56
56
15
15
19
58
54
ENDCHAR
STARTCHAR uni01C4
ENCODING 452
SWIDTH 1740 0
DWIDTH 21 0
BBX 21 14 0 0
BITMAP
000000055000
000000058000
000000024000
000000000000
555501555640
555681555640
5AA552AA5A40
5656A155AA40
5501A406A900
5501A45A9000
5506A1AA4000
56AA91A56A40
5AAA8196AA40
6AA902AAAA40
ENDCHAR
STARTCHAR uni01C5
ENCODING 453
SWIDTH 1601 0
DWIDTH 19 0
BBX 19 12 0 0
BITMAP
0000001540
0000001640
5555000900
5556815550
5AA55156A4
5656A15950
5501A40550
5501A42A40
5506A05540
56AA909A00
5AAA8155A4
6AA9015AA4
ENDCHAR
STARTCHAR Scommaaccent
ENCODING 536
SWIDTH 682 0
DWIDTH 8 0
BBX 8 15 0 -5
BITMAP
16A5
2AA9
5554
5650
55A4
2555
0565
0565
1555
5964
0540
0280
0180
0180
0140
ENDCHAR
STARTCHAR scommaaccent
ENCODING 537
SWIDTH 683 0
DWIDTH 8 0
BBX 8 14 0 -5
BITMAP
0554
2559
5554
5940
56A4
1565
0015
1AA5
1AA4
0140
0280
0180
0180
0140
ENDCHAR
STARTCHAR uni021A
ENCODING 538
SWIDTH 591 0
DWIDTH 7 0
BBX 7 15 0 -5
BITMAP
5554
5554
5A94
0A80
0A80
0A80
0A80
0A80
0A80
0A80
0000
0540
0540
0540
0500
ENDCHAR
STARTCHAR uni021B
ENCODING 539
SWIDTH 588 0
DWIDTH 7 0
BBX 7 14 0 -5
BITMAP
5554
5554
5554
0A80
0A80
0A80
0A80
0A80
0A80
0000
0540
0540
0540
0500
ENDCHAR
STARTCHAR uni0237
ENCODING 567
SWIDTH 393 0
DWIDTH 5 0
BBX 5 10 0 -1
BITMAP
1500
1640
1640
1640
1640
1640
1A40
6A00
6500
6400
ENDCHAR
STARTCHAR circumflex
ENCODING 710
SWIDTH 376 0
DWIDTH 5 0
BBX 4 3 0 9
BITMAP
18
15
55
ENDCHAR
STARTCHAR caron
ENCODING 711
SWIDTH 362 0
DWIDTH 4 0
BBX 4 3 0 9
BITMAP
55
15
28
ENDCHAR
STARTCHAR breve
ENCODING 728
SWIDTH 360 0
DWIDTH 4 0
BBX 4 2 0 9
BITMAP
55
14
ENDCHAR
STARTCHAR dotaccent
ENCODING 729
SWIDTH 255 0
DWIDTH 3 0
BBX 3 3 0 7
BITMAP
54
54
54
ENDCHAR
STARTCHAR ring
ENCODING 730
SWIDTH 330 0
DWIDTH 4 0
BBX 4 4 0 9
BITMAP
14
55
55
14
ENDCHAR
STARTCHAR ogonek
ENCODING 731
SWIDTH 250 0
DWIDTH 3 0
BBX 3 4 0 -3
BITMAP
14
54
50
54
ENDCHAR
STARTCHAR tilde
ENCODING 732
SWIDTH 665 0
DWIDTH 8 0
BBX 8 3 0 6
BITMAP
1555
56A5
0150
ENDCHAR
STARTCHAR hungarumlaut
ENCODING 733
SWIDTH 837 0
DWIDTH 10 0
BBX 10 4 0 8
BITMAP
000040
068590
691900
101000
ENDCHAR
STARTCHAR uni0307
ENCODING 775
SWIDTH 260 0
DWIDTH 3 0
BBX 3 3 0 4
BITMAP
54
54
54
ENDCHAR
STARTCHAR uni030F
ENCODING 783
SWIDTH 554 0
DWIDTH 7 0
BBX 6 4 0 9
BITMAP
5140
2590
1450
1860
ENDCHAR
STARTCHAR uni0311
ENCODING 785
SWIDTH 375 0
DWIDTH 5 0
BBX 4 2 0 9
BITMAP
15
55
ENDCHAR
STARTCHAR uni0326
ENCODING 806
SWIDTH 274 0
DWIDTH 3 0
BBX 3 4 0 -5
BITMAP
54
54
54
50
ENDCHAR
STARTCHAR Omega
ENCODING 937
SWIDTH 92 0
DWIDTH 1 0
BBX 1 1 0 0
BITMAP
00
ENDCHAR
STARTCHAR uni00B5.dup2
ENCODING 956
SWIDTH 802 0
DWIDTH 10 0
BBX 9 10 0 -1
BITMAP
550540
550680
550680
550680
550680
550680
565A80
565940
566900
565000
ENDCHAR
STARTCHAR pi
ENCODING 960
SWIDTH 92 0
DWIDTH 1 0
BBX 1 1 0 0
BITMAP
00
ENDCHAR
STARTCHAR endash
ENCODING 8211
SWIDTH 473 0
DWIDTH 6 0
BBX 5 3 0 3
BITMAP
5540
6A80
1540
ENDCHAR
STARTCHAR emdash
ENCODING 8212
SWIDTH 615 0
DWIDTH 7 0
BBX 7 3 0 3
BITMAP
5554
6AA8
1554
ENDCHAR
STARTCHAR quoteleft
ENCODING 8216
SWIDTH 254 0
DWIDTH 3 0
BBX 3 4 0 6
BITMAP
14
54
54
54
ENDCHAR
STARTCHAR quoteright
ENCODING 8217
SWIDTH 251 0
DWIDTH 3 0
BBX 3 4 0 6
BITMAP
54
54
14
64
ENDCHAR
STARTCHAR quotesinglbase
ENCODING 8218
SWIDTH 252 0
DWIDTH 3 0
BBX 3 4 0 -2
BITMAP
54
54
54
50
ENDCHAR
STARTCHAR quotedblleft
ENCODING 8220
SWIDTH 535 0
DWIDTH 6 0
BBX 6 4 0 6
BITMAP
1450
5450
5590
55A0
ENDCHAR
STARTCHAR quotedblright
ENCODING 8221
SWIDTH 532 0
DWIDTH 6 0
BBX 6 4 0 6
BITMAP
5450
54A0
1450
6490
ENDCHAR
STARTCHAR quotedblbase
ENCODING 8222
SWIDTH 533 0
DWIDTH 6 0
BBX 6 4 0 -2
BITMAP
55A0
5460
5450
5050
ENDCHAR
STARTCHAR dagger
ENCODING 8224
SWIDTH 636 0
DWIDTH 8 0
BBX 7 10 0 0
BITMAP
0550
0550
5964
5964
5964
0550
0550
0550
0550
0550
ENDCHAR
STARTCHAR daggerdbl
ENCODING 8225
SWIDTH 648 0
DWIDTH 8 0
BBX 8 10 0 0
BITMAP
0550
0550
5964
6969
1964
0550
6969
6969
1964
0550
ENDCHAR
STARTCHAR bullet
ENCODING 8226
SWIDTH 501 0
DWIDTH 6 0
BBX 6 6 0 1
BITMAP
1540
5550
5050
5050
2A80
0500
ENDCHAR
STARTCHAR ellipsis
ENCODING 8230
SWIDTH 676 0
DWIDTH 8 0
BBX 8 2 0 0
BITMAP
6699
6699
ENDCHAR
STARTCHAR perthousand
ENCODING 8240
SWIDTH 447 0
DWIDTH 5 0
BBX 5 11 0 -1
BITMAP
0140
0640
0540
0640
0A00
1500
1500
1900
2800
5400
5400
ENDCHAR
STARTCHAR guilsinglleft
ENCODING 8249
SWIDTH 465 0
DWIDTH 6 0
BBX 5 6 0 1
BITMAP
0580
5980
6600
6640
0580
0040
ENDCHAR
STARTCHAR guilsinglright
ENCODING 8250
SWIDTH 465 0
DWIDTH 6 0
BBX 5 6 0 1
BITMAP
5500
6640
1640
6580
6500
5000
ENDCHAR
STARTCHAR fraction
ENCODING 8260
SWIDTH 447 0
DWIDTH 5 0
BBX 5 11 0 -1
BITMAP
0140
0640
0540
0640
0A00
1500
1500
1900
2800
5400
5400
ENDCHAR
STARTCHAR uni2074
ENCODING 8308
SWIDTH 528 0
DWIDTH 6 0
BBX 6 8 0 2
BITMAP
0540
1A40
1500
2950
6990
6AA0
5550
0050
ENDCHAR
STARTCHAR Euro
ENCODING 8364
SWIDTH 781 0
DWIDTH 9 0
BBX 9 11 0 -1
BITMAP
016A40
056A40
066640
158000
5A5400
5A5400
154000
155500
055540
01A680
001500
ENDCHAR
STARTCHAR trademark
ENCODING 8482
SWIDTH 1503 0
DWIDTH 18 0
BBX 18 8 0 2
BITMAP
5555500150
5555540550
5A95680650
0541551550
05415A5A50
0541559550
0541569550
0541515150
ENDCHAR
STARTCHAR partialdiff
ENCODING 8706
SWIDTH 108 0
DWIDTH 1 0
BBX 1 1 0 0
BITMAP
00
ENDCHAR
STARTCHAR uni2206
ENCODING 8710
SWIDTH 108 0
DWIDTH 1 0
BBX 1 1 0 0
BITMAP
00
ENDCHAR
STARTCHAR product
ENCODING 8719
SWIDTH 521 0
DWIDTH 6 0
BBX 6 9 0 0
BITMAP
0500
1940
1680
2590
5590
6550
2990
1640
1A40
ENDCHAR
STARTCHAR summation
ENCODING 8721
SWIDTH 108 0
DWIDTH 1 0
BBX 1 1 0 0
BITMAP
00
ENDCHAR
STARTCHAR minus
ENCODING 8722
SWIDTH 555 0
DWIDTH 7 0
BBX 6 3 0 4
BITMAP
1550
6AA0
5550
ENDCHAR
STARTCHAR radical
ENCODING 8730
SWIDTH 108 0
DWIDTH 1 0
BBX 1 1 0 0
BITMAP
00
ENDCHAR
STARTCHAR infinity
ENCODING 8734
SWIDTH 108 0
DWIDTH 1 0
BBX 1 1 0 0
BITMAP
00
ENDCHAR
STARTCHAR integral
ENCODING 8747
SWIDTH 362 0
DWIDTH 4 0
BBX 4 11 0 -1
BITMAP
1A
1A
19
19
19
19
19
19
59
58
54
ENDCHAR
STARTCHAR approxequal
ENCODING 8776
SWIDTH 665 0
DWIDTH 8 0
BBX 8 6 0 3
BITMAP
1555
56A5
0150
1555
56A5
0150
ENDCHAR
STARTCHAR notequal
ENCODING 8800
SWIDTH 473 0
DWIDTH 6 0
BBX 5 11 0 -1
BITMAP
0140
0640
1A80
6FC0
6F80
1500
7F40
7F80
7D40
5400
5400
ENDCHAR
STARTCHAR lessequal
ENCODING 8804
SWIDTH 108 0
DWIDTH 1 0
BBX 1 1 0 0
BITMAP
00
ENDCHAR
STARTCHAR greaterequal
ENCODING 8805
SWIDTH 108 0
DWIDTH 1 0
BBX 1 1 0 0
BITMAP
00
ENDCHAR
STARTCHAR lozenge
ENCODING 9674
SWIDTH 521 0
DWIDTH 6 0
BBX 6 9 0 0
BITMAP
0500
1940
1680
2590
5590
6550
2990
1640
1A40
ENDCHAR
STARTCHAR uniF8FF
ENCODING 63743
SWIDTH 108 0
DWIDTH 1 0
BBX 1 1 0 0
BITMAP
00
ENDCHAR
STARTCHAR uniFB01
ENCODING 64257
SWIDTH 962 0
DWIDTH 12 0
BBX 11 9 0 0
BITMAP
555454
5654A8
5654A8
5500A8
56A4A8
56A4A8
5500A8
5500A8
5500A8
ENDCHAR
STARTCHAR uniFB02
ENCODING 64258
SWIDTH 1208 0
DWIDTH 15 0
BBX 14 9 0 0
BITMAP
55545400
5654A800
5654A800
5500A800
56A4A800
56A4A800
5500A800
5500AAA0
5500AAA0
ENDCHAR
STARTCHAR .notdef
ENCODING -1
SWIDTH 108 0
DWIDTH 1 0
BBX 1 1 0 0
BITMAP
00
ENDCHAR
ENDFONT
